<?xml version="1.0" encoding="UTF-8"?>
<svg xmlns="http://www.w3.org/2000/svg" width="865.76" height="682.89" viewBox="0 0 865.76 682.89">
  <ellipse cx="798.38" cy="366.65" rx="26.52" ry="50.63" fill="#d1b099" opacity="0.21"></ellipse>
  <ellipse cx="329.6" cy="102.23" rx="103.72" ry="59.72" transform="translate(-14.57 77.02) rotate(-13.04)" fill="#d1b099" opacity="0.21"></ellipse>
  <ellipse cx="176.39" cy="126.17" rx="30.54" ry="23.9" transform="translate(-19.12 32.33) rotate(-9.94)" fill="#d1b099" opacity="0.21"></ellipse>
  <path d="M792.56,477.43a67.17,67.17,0,0,1-5.84,28c-12.69,28.67-43.78,55.54-71,70.14l-602.31.33C93.72,556.26,77.38,532.13,65,505.44a286.53,286.53,0,0,1-15.2-40.82,294.47,294.47,0,0,1-10.73-59.7C33.31,327,59.28,247.13,127.57,199.6c90.41-59.45,220.6,32.49,287.59-63.28,28.67-41,36.82-90.39,89.53-93.42,152.18-15.74,276.89,90.67,258.53,242.58-2.74,27.75-20.06,60.17-18.19,88.34a54.81,54.81,0,0,0,1.12,8.1c8.3,38.2,34.23,62.61,43.27,83.07A32.89,32.89,0,0,1,792.56,477.43Z" fill="#d1b099" opacity="0.21"></path>
  <path d="M812.3,233.47a75,75,0,0,0-16.5-10.58c15-29.75,3.94-69.42-24.32-89.23-18-12.61-40.56-15.36-61.26-10.2-1.93-9.88-7.62-18.63-18.1-22.86a31.36,31.36,0,0,0-21.71-.66c-7-26.38-22.87-49.57-49.28-60.31-30-12.2-61.63-1-84.94,19.64-11.4-12-26.09-20.11-42.74-14.08-15.14,5.5-26.2,16.31-33.09,29.67-22.19-7-48.25-3.33-65.43,12.21-21.67,19.6-31.59,46.43-33.27,74.3-8.27-4.64-17.49-5.52-26.58,1.48-11.94,9.18-12.66,23-8.34,35.81-.67-.08-1.33-.24-2-.27-17.75-.89-36.61,12.92-47.17,25.87-17.95,22-20.28,50.28-9.52,74.09-28.88,34-19.34,90.93,22.07,110.88,28.62,13.78,63.45,11.33,87.84-5.51a51.79,51.79,0,0,0,24.33,24.22c18.38,8.53,35.39,1.66,46-12.13,4.73,20.28,34.34,29.33,52.85,27.8,15.07-1.24,27.89-9.42,37.91-20.48,17.39,12,41,16.44,61.55,13.78,16.09-2.09,32.95-11.78,43.89-25.35a18.28,18.28,0,0,0,19.4,10.69c8-1.09,16.19-7.72,19.63-15.67,15.62,7.78,36.41,8.91,50.81,4.16s25.46-14.27,33.35-26.12a52.8,52.8,0,0,0,17-2.84c29-9.78,49.58-42.27,54.57-71.12C844.15,282.34,834.27,252.35,812.3,233.47Z" fill="#7cd093" stroke="#002346" stroke-miterlimit="10"></path>
  <path d="M475.36,575.8h161c-33.17-26.55-52.06-66.09-59.05-107.95C571,429.86,567,371.34,596.1,341,613.35,323.12,638.21,324.8,661,326c20.5,1,40.87.46,61-3.83,33.75-7.17,67.68-24,75.29-60.46.66-3.2-4.09-4.58-4.94-1.36-13.46,50.87-73.23,53.91-120.19,52.63a56.63,56.63,0,0,0,12.39-7.25c16.08-12.64,19.79-34.21,38.94-43.89,1.15-.58.35-2.41-.87-2.07-14.38,4.11-22.67,16-33.16,25.88-17.15,16.14-36.56,19.84-59.08,23-17.89,2.49-35.54,5.36-51.28,14.76a62.26,62.26,0,0,0-7.31,5.24c-6.6-18.73-10.68-36.56-.45-56.31,11-21.18,30.53-31.09,53-35.44,26.94-5.22,53.21-9.82,64.77-37.69.66-1.61-1.75-2.32-2.62-1.11-14.64,20.38-43.45,21.32-65.8,25.56-1.1.21-2.17.47-3.25.7,1.52-1.68,3-3.39,4.39-5.23,13.11-17.41,15.26-38.37,18.6-59.23.18-1.14-1.48-1.65-1.76-.49-6.64,27.19-19.7,49.79-42.35,66.5-14.75,10.87-31.33,20.37-41.6,36.08s-11.88,34.21-11.13,52.52c.29,7,.58,13.7.74,20.21-1.29-1.3-2.59-2.64-3.85-3.91-18-18.2-37.95-35-50-58.1-15-28.85-7.21-51.56,10.35-76.31,12-17,20.88-34.92,18.33-56.23-.21-1.74-2.88-1.85-2.81,0,1.17,29-27.74,45.79-40.62,68.95-8.72,15.66-10.34,32.61-6.39,49.3-21.58-25.62-40.79-53.23-45.93-85.84-.17-1.06-1.91-.81-1.86.25C424,222.69,450,258.83,481.7,295.61c6.12,7.1,12.15,14.23,18,21.49.59,2.8,1.31,5.58,2.05,8.31-1-1-2.07-1.93-3.17-2.81-8.11-6.48-15.21-12.5-24.81-15.68-5.19-3.11-11.89-3.81-17.86-5.67-45.43-14.17-96.57,20.07-131.25-25.19-1.56-2-4.78-.93-4.24,1.78,5.23,26,37.06,33.11,59.8,33.31,6.37.05,12.76-.39,19.15-.92-.25.13-.51.25-.76.4-12.7,7.05-23.7,16.72-36.48,23.74A207.21,207.21,0,0,1,314,353.19a.77.77,0,0,0,.21,1.5C335,354,354.54,349.68,373,340c23.34-12.28,42.8-30.13,71.2-25.46,14.51,2.39,27.45,9.12,38.36,18.43a98.92,98.92,0,0,1,15.84,22.87c19,37.65,17.87,86.42,12.47,127.33C506.26,518.26,494.23,547.83,475.36,575.8Z" fill="#8c6239" stroke="#0d2445" stroke-miterlimit="10"></path>
  <path d="M826.56,566.08H37.15A5.29,5.29,0,0,1,31.72,561h0a5.29,5.29,0,0,1,5.43-5.13H826.56A5.29,5.29,0,0,1,832,561h0A5.29,5.29,0,0,1,826.56,566.08Z" fill="#7cd093" stroke="#002346" stroke-miterlimit="10"></path>
  <path d="M826.56,576.33H37.15a5.29,5.29,0,0,1-5.43-5.13h0a5.28,5.28,0,0,1,5.43-5.12H826.56A5.28,5.28,0,0,1,832,571.2h0A5.29,5.29,0,0,1,826.56,576.33Z" fill="#6fc984" stroke="#002346" stroke-miterlimit="10"></path>
  <line x1="828.84" y1="575.96" x2="320.39" y2="575.96" fill="none" stroke="#0d2445" stroke-linecap="round" stroke-linejoin="round"></line>
  <line x1="301.73" y1="566.96" x2="298.66" y2="566.96" fill="none" stroke="#0d2445" stroke-linecap="round" stroke-linejoin="round"></line>
  <line x1="281.55" y1="575.96" x2="182.77" y2="575.96" fill="none" stroke="#0d2445" stroke-linecap="round" stroke-linejoin="round"></line>
  <line x1="158.05" y1="566.96" x2="149.41" y2="566.96" fill="none" stroke="#0d2445" stroke-linecap="round" stroke-linejoin="round"></line>
  <line x1="126.33" y1="575.96" x2="33.94" y2="575.96" fill="none" stroke="#0d2445" stroke-linecap="round" stroke-linejoin="round"></line>
  <path d="M301.73,576c2.81-9.42,5.49-22.9,2.28-33.58l-3-1.46-6.54-3.21-9.48,9s3.77,7.6-1.09,23.6c0,0-1,2.18-2.36,5.68h20.18Z" fill="#efb0be" stroke="#0d2445" stroke-miterlimit="10"></path>
  <path d="M301.73,576h18.66c.24-1.25.38-2,.38-2,5.14-23.43,3.94-36.93,3.94-36.93L301,540.92l-4,.64a43.37,43.37,0,0,0,1.78,7.07c1.78,6.64,0,22.78,0,22.78l-.17,4.55Z" fill="#efb0be" stroke="#0d2445" stroke-miterlimit="10"></path>
  <path d="M330.25,533.82c-10.34,8.1-34.05,9.35-34.05,9.35-5.29,3.05-11.47,3.7-15,3.79a3.69,3.69,0,0,1-3.68-2.75l-2.2-8.29-10.09-39a21.64,21.64,0,0,1,11,4.18,26,26,0,0,0,24.29,3.14s12.37-5.54,10.9-23.2l.05-17.65L319.5,472l8.06,38.49,4.09,18.64A4.29,4.29,0,0,1,330.25,533.82Z" fill="#d1b099" stroke="#0d2445" stroke-miterlimit="10"></path>
  <path d="M279.54,506l8.94,31.18a10.25,10.25,0,0,0,7.72,6" fill="none" stroke="#0d2445" stroke-linecap="round" stroke-linejoin="round"></path>
  <path d="M360.77,388.85S587.85,207.92,701,151.92c0,0-253,162.83-340.22,244.7l-2.66-5.3Z" fill="#fff" stroke="#0d2445" stroke-miterlimit="10"></path>
  <path d="M325.08,384.74s8.15-.8,11.34,2l-2.33,5.66-.81,1.2-12.52-6.47Z" fill="#efb0be" stroke="#0d2445" stroke-miterlimit="10"></path>
  <path d="M314.84,384.74h10.7a7.47,7.47,0,0,1,2.39.38c1.61.53,4,1.66,3.62,3.6l-4.42,2.9S324,393,324,397.9h-5.22l-6.69-2.84-2.21-10.32Z" fill="#efb0be" stroke="#0d2445" stroke-miterlimit="10"></path>
  <path d="M319.55,391.32s2-.26,1.73-2h9.32" fill="none" stroke="#0d2445" stroke-linecap="round" stroke-linejoin="round"></path>
  <path d="M337.13,387.32h0a11.25,11.25,0,0,1,11.25,11.25v11.87a0,0,0,0,1,0,0H325.88a0,0,0,0,1,0,0V398.58A11.25,11.25,0,0,1,337.13,387.32Z" transform="matrix(0.84, -0.55, 0.55, 0.84, -163.35, 249.62)" fill="#fff" stroke="#0d2445" stroke-miterlimit="10"></path>
  <path d="M168.77,506.91l-12.62,52.24,0,.18a118.73,118.73,0,0,0-6.7,16.63H126.33c.3-4.41.44-7.39.44-7.39,2-30.57,10-44.57,10-44.57,6.57-14,2.85-23.43,2.85-23.43L123.44,476.2l-.67-4.49,7.57-3.22L136.2,466l21.65,5.09Z" fill="#efb0be" stroke="#0d2445" stroke-miterlimit="10"></path>
  <path d="M190.16,511.6,182.77,576H158.05c-.51-5.61-.93-9.38-.93-9.38q-.6-3.75-1-7.43a168.94,168.94,0,0,1,1.68-44.86,57.21,57.21,0,0,0,1.35-15.89,21.22,21.22,0,0,0-8.9-15.76l-19.94-14.15-2.56-1.81L142.31,442l24-4,19.42,15.39,10.34,27.69C197.55,488.21,190.16,511.6,190.16,511.6Z" fill="#efb0be" stroke="#0d2445" stroke-miterlimit="10"></path>
  <path d="M95,439.2s17.21,21.4,23.31,36.08a3.18,3.18,0,0,0,4,1.75c3.1-1.13,7.9-3.27,11-6.54l-5.38-3.88-9.71-13.76L107.32,439.2Z" fill="#fbe493" stroke="#0d2445" stroke-miterlimit="10"></path>
  <path d="M207.77,359.5h0a128.87,128.87,0,0,1-9.58,12.21L192.63,378l-21.25,24a50.5,50.5,0,0,0-13.52-3.87c-21-3-41.09,5.92-41.09,5.92-24.69,9.39-36.71,8.28-42.6,7.2-2.35-.44-3.73-.87-4.55-.62,3.43-57.72,30.86-71.43,30.86-71.43l52.68-38.29c33.25-24.85,51.46-17,51.46-17s15.29,6.43,17.72,31.15C222.34,315,226.14,332.93,207.77,359.5Z" fill="#d1b099" stroke="#0d2445" stroke-miterlimit="10"></path>
  <path d="M235.34,300l-13,15c-2.57-24.86-17.72-31.15-17.72-31.15l4.86-7.14s6.43-.14,13.86-6.43l8-6.83,10.57,4-1.57,31.32S237.05,298,235.34,300Z" fill="#efb0be" stroke="#0d2445" stroke-miterlimit="10"></path>
  <rect x="231.34" y="242.28" width="34.57" height="58.57" rx="17.29" fill="#efb0be" stroke="#0d2445" stroke-miterlimit="10"></rect>
  <path d="M168.77,435.42,166.51,438a110.47,110.47,0,0,1-32.27,25.32L125.33,468a3.14,3.14,0,0,1-4.19-1.27c-7-12.66-24.09-25.83-24.09-25.83-21.14-16.57-22.88-29.66-22.88-29.66,5.89,1.08,17.91,2.19,42.6-7.2,0,0,20.14-8.95,41.09-5.92Z" fill="#fbe493" stroke="#0d2445" stroke-miterlimit="10"></path>
  <line x1="160.19" y1="420.85" x2="149.19" y2="401.94" fill="none" stroke="#0d2445" stroke-linecap="round" stroke-linejoin="round"></line>
  <path d="M255.6,366.57a10,10,0,0,1-1.27,2.9c-6.24,9.38-21.28,9.38-21.28,9.38L192.63,378l5.56-6.27a128.87,128.87,0,0,0,9.58-12.21h0l29.72,5.85a3.5,3.5,0,0,0,3.16-1l9.26-9.51c3.71-4.57,5.71-2.85,5.71-2.85l7.13-9a3.15,3.15,0,0,1,1.13-.89,6.32,6.32,0,0,1,5.5.48S257.86,358.41,255.6,366.57Z" fill="#efb0be" stroke="#0d2445" stroke-miterlimit="10"></path>
  <path d="M255.62,352s2.29.85-1.43,6l-6.57,9.14" fill="none" stroke="#0d2445" stroke-linecap="round" stroke-linejoin="round"></path>
  <path d="M315.51,431.92s1.61,21.9,6.41,35a3.77,3.77,0,0,1-3.55,5H311.5V427.68Z" fill="#91d7f0" stroke="#0d2445" stroke-miterlimit="10"></path>
  <path d="M339.58,403.32s9.47-3.9,12-9.61a13.28,13.28,0,0,1,6.86-7.71s6.29-2.86,8.86-2l-6.57,4.85,10.57.29s3.14,1.43-2.57,5.43c0,0,0,3.42-2.29,5.14,0,0,.21,3.12-4.89,5.27a10.24,10.24,0,0,0-6.54,3l-11.3,9.77Z" fill="#efb0be" stroke="#0d2445" stroke-miterlimit="10"></path>
  <path d="M326.52,403.22S338.79,400,344.78,390" fill="none" stroke="#0d2445" stroke-linecap="round" stroke-linejoin="round"></path>
  <path d="M295,319.87s-3.27,9.6-11.17,12.9c0,0,13,8.65,16.77,11.62l3.06-3.95,4.69-8.31-7.75-13.45Z" fill="#efb0be" stroke="#0d2445" stroke-miterlimit="10"></path>
  <path d="M285.47,316.78a75.28,75.28,0,0,1,12.66-2.88l-3.11,6c-1.95,7.45-6.16,11.09-8.59,12.64a3.37,3.37,0,0,1-3.68-.08c-6.48-4.44-5.7-13.52-5.7-13.52s3.07-.66,5.5-1.26C283.54,317.4,284.51,317.11,285.47,316.78Z" fill="#0d2445"></path>
  <path d="M331.43,311.44s.54,6.05-7.24,8.69l.55-2.36a11.62,11.62,0,0,0-.16-5A37.3,37.3,0,0,0,331.43,311.44Z" fill="#0d2445"></path>
  <path d="M270,248.93a37.07,37.07,0,0,1-6.41,2,15.87,15.87,0,0,1,2.29,8.6S271.35,256.79,270,248.93Z" fill="#0d2445"></path>
  <path d="M209.48,276.71s.75,7.35,8.84,2.42c0,0,5.15,6.33,8.48-4.16v-7.64l-3.46,2.95S217.4,275.79,209.48,276.71Z" fill="#0d2445"></path>
  <path d="M236.59,269s9.26.32,10.4-6.83c0,0,16.73.79,18.22-11.6l-1.93-4.4L234,257.62s-11.69,2.31-11.37,2.59S236.59,269,236.59,269Z" fill="#0d2445"></path>
  <ellipse cx="231.13" cy="270.49" rx="5.57" ry="7.14" fill="#efb0be" stroke="#0d2445" stroke-miterlimit="10"></ellipse>
  <path d="M209.48,276.71l-15.22.94a.42.42,0,0,1-.35-.67l7.5-9.53s-8.07-26.88,12.21-37.74c0,0,21.15-13,35-2.06l11,10.06,19.43,1.43c1.19.1.64,1.52,0,2.51-2.09,3.2-7.53,8.85-20.26,10.06a102,102,0,0,0-27.43,11.74l-8,6.83S217.05,275.71,209.48,276.71Z" fill="#d1b099" stroke="#0d2445" stroke-miterlimit="10"></path>
  <path d="M259.62,237.71a194.37,194.37,0,0,0-54,26.86" fill="none" stroke="#0d2445" stroke-linecap="round" stroke-linejoin="round"></path>
  <path d="M166.31,350.7s-13.83,31.87-6.12,70.15l14.69,36.72a45.28,45.28,0,0,0,18.9,22.21l.71.42a6.33,6.33,0,0,0,5.13.58,4.83,4.83,0,0,0,3.43-5.07s5.14-3.72,4.29-7.14c0,0,2-5.72-2.57-8.86,0,0-19.43-4-19.43-23.14L183.9,405a39.37,39.37,0,0,1,1.38-12.27c2.64-9.58,7.77-27.35,10.41-30.81C195.69,361.92,177.56,362,166.31,350.7Z" fill="#efb0be" stroke="#0d2445" stroke-miterlimit="10"></path>
  <path d="M207.42,300.85s-23.23-11.71-34.65,22.57l-9.7,23.86s12.55,16.72,37.41,14.43l12.38-28a35.57,35.57,0,0,0,2.67-20.12C214.65,308.19,212.45,302.85,207.42,300.85Z" fill="#d1b099" stroke="#0d2445" stroke-miterlimit="10"></path>
  <path d="M311.43,463.43l-.05,17.65c1.47,17.66-10.9,23.2-10.9,23.2a26,26,0,0,1-24.29-3.14,21.64,21.64,0,0,0-11-4.18,35.93,35.93,0,0,0-10.42.75c-3.15-11.91-4.68-27.1-6-39.68-1.59-15-.87-30.38.46-45.39,3.09-35.1,6.38-46.07,6.38-46.07,9.41-23.42,19.17-29.15,19.17-29.15a13,13,0,0,1,.37-4,3.78,3.78,0,0,1,5.48-2.27A168.21,168.21,0,0,1,307.9,350.3a2.39,2.39,0,0,1,.14,3.5l-3,3.05c7.43,2.57,9.14,16,9.14,16l.86,15.72c4.57,6.28,4.86,17.71,4.86,17.71L336,401.41a2.89,2.89,0,0,1,3.61,1.95L344,418.27a2.88,2.88,0,0,1-1.75,3.53L311.5,433.43Z" fill="#fbe493" stroke="#0d2445" stroke-miterlimit="10"></path>
  <line x1="305.05" y1="356.85" x2="278.71" y2="339.35" fill="none" stroke="#0d2445" stroke-linecap="round" stroke-linejoin="round"></line>
  <path d="M287.35,378.85l7.17,39.48s3.15,17.11,17,15.1" fill="none" stroke="#0d2445" stroke-linecap="round" stroke-linejoin="round"></path>
  <path d="M324.19,405s11,1.17,9.8,19.95" fill="none" stroke="#0d2445" stroke-linecap="round" stroke-linejoin="round"></path>
  <line x1="319.91" y1="406.28" x2="313.56" y2="408.49" fill="none" stroke="#0d2445" stroke-linecap="round" stroke-linejoin="round"></line>
  <rect x="299.08" y="303.35" width="24.14" height="38.75" rx="12.07" transform="translate(84.39 -63.99) rotate(13.57)" fill="#efb0be" stroke="#0d2445" stroke-miterlimit="10"></rect>
  <ellipse cx="298.06" cy="316.72" rx="5.48" ry="3.71" transform="translate(-58.16 566.24) rotate(-81.75)" fill="#efb0be" stroke="#0d2445" stroke-miterlimit="10"></ellipse>
  <path d="M273.05,308s.86-27.15,16-28.86h15.66s7.77-.57,12.63,7.71l6.85,12,14.31,6.41a1.71,1.71,0,0,1,.29,2.95c-2.12,1.53-6.31,3.57-14.18,4.5a12.4,12.4,0,0,1-2.36.07c-4.56-.25-22.67-.84-37.77,4.36,0,0-9.78,3.11-17.77,1.69a1.83,1.83,0,0,1-1-3.05Z" fill="#fbe493" stroke="#0d2445" stroke-miterlimit="10"></path>
  <path d="M324.19,298.85s-25.14-2.28-47.14,6.86" fill="none" stroke="#0d2445" stroke-linecap="round" stroke-linejoin="round"></path>
  <path d="M728.49,476.87a33.94,33.94,0,0,1-4,2.21l-4-3,.85-1.12a30.26,30.26,0,0,0,2.44-3.91,32.32,32.32,0,0,0-3-34.49l-9.81-13c-7.67-9.86-8.74-17-8.13-21.48a7.44,7.44,0,0,1,6.18-6.37c29.37-4.55,39.45,29.35,39.45,29.35C756.32,455.63,737.16,471.45,728.49,476.87Z" fill="#fbe493" stroke="#0d2445" stroke-miterlimit="10"></path>
  <circle cx="724.49" cy="408.08" r="6" fill="#fff" stroke="#0d2445" stroke-miterlimit="10"></circle>
  <circle cx="724.49" cy="408.08" r="4" fill="#0d2445"></circle>
  <path d="M726.52,423.72a24.61,24.61,0,0,0,12-7.64" fill="none" stroke="#0d2445" stroke-linecap="round" stroke-linejoin="round"></path>
  <path d="M728.52,427.72a24.61,24.61,0,0,0,12-7.64" fill="none" stroke="#0d2445" stroke-linecap="round" stroke-linejoin="round"></path>
  <path d="M731.52,431.72a24.61,24.61,0,0,0,12-7.64" fill="none" stroke="#0d2445" stroke-linecap="round" stroke-linejoin="round"></path>
  <path d="M747.26,421.73s1.55-1.15,3.8.79a7.23,7.23,0,0,1,2.09,3.17c1.21,3.52,3.39,13.1.34,31.39l-5.13-5S753.49,434.08,747.26,421.73Z" fill="#d1b099" stroke="#0d2445" stroke-miterlimit="10"></path>
  <path d="M720.8,436.56l-3.89,4.09s8.39,8.26,10.49,14.35A35.92,35.92,0,0,0,720.8,436.56Z" fill="#d1b099" stroke="#0d2445" stroke-miterlimit="10"></path>
  <path d="M725.49,495.08c-8-3-7-12.21-7-12.21a13.62,13.62,0,0,1-14.36-3.79c8.65-10,19.65-8,19.65-8a30.26,30.26,0,0,1-2.44,3.91l-.85,1.12,4,3a33.94,33.94,0,0,0,4-2.21C732.49,489.66,725.49,495.08,725.49,495.08Z" fill="#d1b099" stroke="#0d2445" stroke-miterlimit="10"></path>
  <path d="M701.13,151.92c.49.33,1,.67,1.43,1,17.17,12.56,15.64,38.79-2.62,49.69-19.66,11.74-31.31,32.46-31.31,32.46-23,42,23,54.78,23,54.78l40.93,12.86c31.94,11.64,1.07,29.36,1.07,29.36l-21.82,11.21c-15.81,7.22-7.18,17.79-7.18,17.79l12,12c9,12-10.47,14-10.47,14s-7.88,2.63-1.27,10.81" fill="none" stroke="#0d2445" stroke-linecap="round" stroke-linejoin="round"></path>
  <line x1="43.13" y1="590.38" x2="825.45" y2="590.38" fill="none" stroke="#0d2445" stroke-linecap="round" stroke-linejoin="round"></line>
  <path d="M811,623.6c14.69,2.61,22.88,4.9,22.88,4.9" fill="none" stroke="#0d2445" stroke-linecap="round" stroke-linejoin="round"></path>
  <path d="M648.63,621.18A541.39,541.39,0,0,1,801,622" fill="none" stroke="#0d2445" stroke-linecap="round" stroke-linejoin="round"></path>
  <path d="M380.34,634.61c59.81,13.85,120.25,22.52,196.18,1.39a540.05,540.05,0,0,1,61.88-13.33" fill="none" stroke="#0d2445" stroke-linecap="round" stroke-linejoin="round"></path>
  <path d="M159.78,600.47q24.56.64,54.23,2.26c57.07,3.26,105.92,17.34,154.52,29.07" fill="none" stroke="#0d2445" stroke-linecap="round" stroke-linejoin="round"></path>
  <path d="M25.28,606s34.4-7.14,119.13-5.81" fill="none" stroke="#0d2445" stroke-linecap="round" stroke-linejoin="round"></path>
  <path d="M586.31,649c41.58-3.8,78.73-8.85,111.4-13C791,624.21,835,647.84,835,647.84" fill="none" stroke="#0d2445" stroke-linecap="round" stroke-linejoin="round"></path>
  <path d="M444.62,654.45a1248.65,1248.65,0,0,0,132.18-4.61" fill="none" stroke="#0d2445" stroke-linecap="round" stroke-linejoin="round"></path>
  <path d="M250.82,636.55q27.66,2.61,58.66,7A1110.88,1110.88,0,0,0,431.8,654.16" fill="none" stroke="#0d2445" stroke-linecap="round" stroke-linejoin="round"></path>
  <path d="M47.8,638.15s70.27-13.27,193.5-2.51" fill="none" stroke="#0d2445" stroke-linecap="round" stroke-linejoin="round"></path>
  <path d="M475.43,616.81c-55.11,1.47-91.51-3.31-110.16-7.62" fill="none" stroke="#0d2445" stroke-linecap="round" stroke-linejoin="round"></path>
  <path d="M756.44,601a1155.34,1155.34,0,0,0-185.28,8.2c-30.45,3.85-57.62,6.06-81.62,7.11" fill="none" stroke="#0d2445" stroke-linecap="round" stroke-linejoin="round"></path>
  <path d="M769.56,601.68s-1.88-.13-5.44-.33" fill="none" stroke="#0d2445" stroke-linecap="round" stroke-linejoin="round"></path>
  <path d="M262.28,77.4S289.07,81.86,288,83,61.69,83,61.69,83s2.6-21.18,25.62-8.92c-1.66-4.32,1.06-31.91,31.21-18.2-.29-17.36,29.4-48.2,56.09-5.2,0,0,18.94-37.52,36.77,3.34,0,0,18.58-6.31,28.61,13.38C240,67.37,253.73,61.8,262.28,77.4Z" fill="#fff" stroke="#0d2445" stroke-miterlimit="10"></path>
  <path d="M639.71,104.18s-19.44,3.23-18.63,4,164.15,0,164.15,0-1.89-15.36-18.59-6.47c1.21-3.13-.77-23.15-22.64-13.2.21-12.6-21.33-35-40.69-3.77,0,0-13.74-27.22-26.68,2.42,0,0-13.47-4.58-20.75,9.7C655.88,96.9,645.91,92.86,639.71,104.18Z" fill="#fff" stroke="#0d2445" stroke-miterlimit="10"></path>
  <path d="M818.39,28.23s-4,10.68-11.59,15.47c-.58-.92-3.93.53-3.65,1.59-8.65,2.26-19.22-2.06-19.22-2.06,6.59,7.08,20,5.25,20,5.25l-3,2.62a10.65,10.65,0,0,0,6.34-.26h0a7.91,7.91,0,0,0,.84-.37h0A10.57,10.57,0,0,0,812.58,46l-4,.4S819.09,37.87,818.39,28.23ZM382,65.14s-6.5,3.07-12,1.94c.14-.67-2-1.48-2.35-.88-4.91-2.76-7.81-9.34-7.81-9.34C359.66,63,366.52,68,366.52,68l-2.5-.12a6.61,6.61,0,0,0,3,2.65h0c.18.08.36.14.54.2h0a6.67,6.67,0,0,0,4,0l-2-1.55S378.05,69.81,382,65.14ZM109.5,130.66S96,139.57,83.42,138.82c.1-1.54-4.94-2.64-5.5-1.19-11.79-4.56-20.34-18.25-20.34-18.25,1.71,13.56,18.55,22.51,18.55,22.51l-5.59.54A15,15,0,0,0,78,147.37h0c.42.11.84.2,1.27.28h0a14.92,14.92,0,0,0,8.86-1.39l-4.86-2.81S102.31,142.29,109.5,130.66Z" fill="#d1b099"></path>
</svg>
