<?xml version="1.0" encoding="UTF-8"?>
<svg xmlns="http://www.w3.org/2000/svg" id="a" width="865.76" height="682.89" viewBox="0 0 865.76 682.89">
  <g>
    <polygon points="601.67 281.36 649.18 219.56 657.88 230.28 619.4 281.36 601.67 281.36" fill="#e6e7e8" stroke="#002346" stroke-miterlimit="10"></polygon>
    <polygon points="614.38 153.29 642.08 213.42 657.88 213.42 621.58 130.26 614.38 133.61 614.38 153.29" fill="#e6e7e8" stroke="#002346" stroke-miterlimit="10"></polygon>
    <ellipse cx="617.02" cy="113.99" rx="9.84" ry="23.1" fill="#e6e7e8" stroke="#002346" stroke-miterlimit="10"></ellipse>
    <rect x="349.95" y="51.17" width="257.23" height="129.14" fill="#e6e7e8" stroke="#002346" stroke-miterlimit="10"></rect>
    <rect x="365.45" y="62.45" width="223.21" height="105.61" fill="#fff" stroke="#002346" stroke-miterlimit="10"></rect>
    <path d="M607.18,51.17h8.06c1.88,0,3.41,1.53,3.41,3.41v122.33c0,1.88-1.53,3.41-3.41,3.41h-8.06V51.17h0Z" fill="#e6e7e8" stroke="#002346" stroke-miterlimit="10"></path>
    <polygon points="481.86 92.68 448.23 150.92 432.24 150.92 473.87 78.82 481.86 92.68" fill="#7674f6" stroke="#002346" stroke-miterlimit="10"></polygon>
    <polygon points="494.47 114.49 473.43 150.92 457.42 150.92 486.45 100.62 494.47 114.49" fill="#e9cd53" stroke="#002346" stroke-miterlimit="10"></polygon>
    <polygon points="515.48 150.92 499.45 150.92 491.63 137.37 499.44 123.14 515.48 150.92" fill="#e9cd53" stroke="#002346" stroke-miterlimit="10"></polygon>
    <path d="M491.87,146.41c0,2.49-2.02,4.51-4.51,4.51s-4.51-2.02-4.51-4.51,2.02-4.51,4.51-4.51,4.51,2.02,4.51,4.51h0Z" fill="#7674f6" stroke="#002346" stroke-miterlimit="10"></path>
    <rect x="476.69" y="311.51" width="139.92" height="320.2" fill="#e6e7e8" stroke="#002346" stroke-miterlimit="10"></rect>
    <rect x="616.61" y="311.51" width="50.94" height="320.2" fill="#e6e7e8" stroke="#002346" stroke-miterlimit="10"></rect>
    <rect x="490.81" y="344.53" width="109.4" height="37.03" fill="#fff" stroke="#002346" stroke-miterlimit="10"></rect>
    <rect x="490.81" y="406.51" width="109.4" height="33.39" fill="#fff" stroke="#002346" stroke-miterlimit="10"></rect>
    <rect x="490.81" y="461.78" width="109.4" height="156.44" fill="#fff" stroke="#002346" stroke-miterlimit="10"></rect>
    <rect x="514.93" y="420.2" width="187.38" height="125.73" fill="#fff" stroke="#002346" stroke-miterlimit="10"></rect>
    <rect x="514.93" y="420.2" width="187.38" height="23.31" fill="#d1d3d4" stroke="#002346" stroke-miterlimit="10"></rect>
    <rect x="514.93" y="420.2" width="87.52" height="23.31" fill="#e6e7e8" stroke="#002346" stroke-miterlimit="10"></rect>
    <rect x="534.7" y="457.62" width="23.2" height="23.2" fill="#fff" stroke="#002346" stroke-miterlimit="10"></rect>
    <rect x="537.58" y="508.18" width="23.2" height="23.2" fill="#7674f6" stroke="#002346" stroke-miterlimit="10"></rect>
    <polygon points="550.86 531.38 560.78 520.53 560.78 531.38 550.86 531.38" fill="#fff" stroke="#002346" stroke-miterlimit="10"></polygon>
    <rect x="568.77" y="508.18" width="23.2" height="23.2" fill="#e9cd53" stroke="#002346" stroke-miterlimit="10"></rect>
    <polygon points="582.05 531.38 591.97 520.53 591.97 531.38 582.05 531.38" fill="#fff" stroke="#002346" stroke-miterlimit="10"></polygon>
    <rect x="600.2" y="508.18" width="23.2" height="23.2" fill="#7cd194" stroke="#002346" stroke-miterlimit="10"></rect>
    <polygon points="613.49 531.38 623.41 520.53 623.41 531.38 613.49 531.38" fill="#fff" stroke="#002346" stroke-miterlimit="10"></polygon>
    <rect x="631.5" y="508.18" width="23.2" height="23.2" fill="#002346" stroke="#002346" stroke-miterlimit="10"></rect>
    <polygon points="644.78 531.38 654.7 520.53 654.7 531.38 644.78 531.38" fill="#fff" stroke="#002346" stroke-miterlimit="10"></polygon>
    <rect x="662.54" y="508.18" width="23.2" height="23.2" fill="#d1d3d4" stroke="#002346" stroke-miterlimit="10"></rect>
    <polygon points="675.82 531.38 685.74 520.53 685.74 531.38 675.82 531.38" fill="#fff" stroke="#002346" stroke-miterlimit="10"></polygon>
    <rect x="654.7" y="461.78" width="12.17" height="12.17" fill="#7674f6" stroke="#002346" stroke-miterlimit="10"></rect>
    <rect x="674.7" y="461.78" width="12.17" height="12.17" fill="#e9cd53" stroke="#002346" stroke-miterlimit="10"></rect>
    <rect x="194.7" y="311.51" width="12.92" height="320.2" fill="#e6e7e8" stroke="#002346" stroke-miterlimit="10"></rect>
    <path d="M389.09,477.78l-64.32,90.25c3.93,5.52,7.58,11.24,10.93,17.14,.22,.37,.43,.75,.65,1.14,6.31,11.37,11.81,24.75,6.34,29.71l-22.46-21.48-.82-.77-47.66-45.59,48.08-73-7.4-7.53,44.73-51.26,36.51,32.64s7.43,9.07-4.58,28.75Z" fill="#f2b3c1" stroke="#002346" stroke-miterlimit="10"></path>
    <path d="M454.05,466.26l-63.84,90.24s5.16,8.16,10.22,17.4l.87,1.62c5.72,10.65,10.87,22.19,7.64,24.18l-27.69-23.93-.93-.81-35.58-30.75-8.47-7.33-1.74-1.5,1.74-2.71,8.47-13.21,41.15-64.2-7.35-7.57,41.44-44.11,36.45,32.64s9.63,10.36-2.38,30.04Z" fill="#f2b3c1" stroke="#002346" stroke-miterlimit="10"></path>
    <path d="M185.58,281.37h498.68c2.95,0,6.97,4.02,6.97,8.97h0c0,4.95-4.02,8.97-8.97,8.97H183.58c-4.95,0-8.97-4.02-8.97-8.97h0c0-4.95,4.02-8.97,10.97-8.97Z" fill="#e6e7e8" stroke="#002346" stroke-miterlimit="10"></path>
    <rect x="187.53" y="299.31" width="490.08" height="16.5" rx="8.25" ry="8.25" fill="#fff" stroke="#002346" stroke-miterlimit="10"></rect>
    <path d="M585.77,169.23l-87.34,112.14h-206.82l83.69-111.4c1.46-1.95,3.76-3.1,6.2-3.11h203.11c.81,0,1.47,.66,1.47,1.47,0,.33-.11,.64-.31,.9Z" fill="#fff" stroke="#002346" stroke-miterlimit="10"></path>
    <path d="M384.7,176.13h170.46c1.81,0,3.28,1.47,3.27,3.29,0,.73-.25,1.45-.7,2.02l-68.07,85.69c-1.41,1.79-3.56,2.84-5.84,2.87l-124.21,1.56-13.35-45.1,35.8-49c.62-.84,1.6-1.33,2.64-1.33Z" fill="#e6e7e8" stroke="#002346" stroke-miterlimit="10"></path>
    <rect x="281.33" y="146.57" width="37" height="37" fill="#f2b3c1" stroke="#002346" stroke-miterlimit="10"></rect>
    <rect x="281.33" y="88.57" width="55" height="79" rx="27.5" ry="27.5" fill="#f2b3c1" stroke="#002346" stroke-miterlimit="10"></rect>
    <path d="M313.97,111.13l22.36,3.44s8-44-30.86-43.35c0,0-33.66-1.24-36.66,23.44,0,0-26.68-12.22-29.92,12.22,0,0-2.49,17.45,18.7,14.71-.52,5.21-3.36,9.92-7.73,12.81,6.5,1.04,13.09-1.12,17.71-5.81,0,0,3.37,15.12,9.5,23.86,3.49,5.04,10.28,6.55,15.57,3.45,3.18-1.91,5.85-4.58,7.77-7.76,6.8-12.3,8.98-27.26,9.65-33.98,.19-1.94,1.99-3.32,3.92-3.03Z" fill="#002346" stroke="#002346" stroke-miterlimit="10"></path>
    <path d="M419.98,403.58l-41.44,44.11c-1.88,1.99-4.96,2.22-7.11,.52l-6.11-4.86c-2.16-1.74-2.6-4.86-1-7.13l-14.34-11.33-39.14,45.45c-1.12,1.3-3.07,1.47-4.39,.37l-9.55-7.91c-1.27-1.05-1.5-2.9-.54-4.24l2.34-3.3-43.37-44.15c-6.21-6.25-11.09-13.68-14.37-21.85-4.43-10.71-6.45-22.14-7.2-32.45-.84-11.19-.38-22.44,1.36-33.52l124,3.33-.12,12.8,50.22,45c4.35-.22,8.56,1.56,11.44,4.83,.87,.92,1.51,2.03,1.87,3.24,1.25,3.88,.27,8.14-2.55,11.09Z" fill="#e9cd53" stroke="#002346" stroke-miterlimit="10"></path>
    <line x1="320.95" y1="431.77" x2="298.67" y2="455.26" fill="none" stroke="#002346" stroke-linecap="round" stroke-linejoin="round"></line>
    <line x1="364.29" y1="436.22" x2="393.57" y2="404.18" fill="none" stroke="#002346" stroke-linecap="round" stroke-linejoin="round"></line>
    <path d="M334.53,535.38l-4.64,6.4,71.48,61.14c1.73,1.49,4.35,1.29,5.84-.44,.15-.17,.28-.36,.4-.56l1.32-2.2-74.4-64.34Z" fill="#7674f6" stroke="#002346" stroke-miterlimit="10"></path>
    <path d="M341.13,618.48l1.58-2.47-70.96-67.82-3.92,4.89,67.94,66.03c1.58,1.53,4.17,1.23,5.36-.62Z" fill="#7674f6" stroke="#002346" stroke-miterlimit="10"></path>
    <polyline points="336.27 532.66 385.89 455.26 378.54 447.69" fill="none" stroke="#002346" stroke-linecap="round" stroke-linejoin="round"></polyline>
    <rect x="231.66" y="413.24" width="8.46" height="218.47" fill="#fff" stroke="#002346" stroke-miterlimit="10"></rect>
    <polygon points="344.73 631.71 336.27 631.71 336.27 413.24 344.73 418.3 344.73 631.71" fill="#fff" stroke="#002346" stroke-miterlimit="10"></polygon>
    <rect x="287.52" y="413.24" width="9.89" height="216.93" fill="#fff" stroke="#002346" stroke-miterlimit="10"></rect>
    <path d="M235.12,323.29l124,3.33-.1,10.26h-125.26c.16-4.55,.62-9.09,1.36-13.59Z" fill="#fff" stroke="#002346" stroke-miterlimit="10"></path>
    <rect x="241.17" y="321.65" width="6.35" height="15.23" fill="#7674f6" stroke="#002346" stroke-miterlimit="10"></rect>
    <polygon points="309.07 336.88 301.75 336.88 301.75 323.94 309.07 325.08 309.07 336.88" fill="#7674f6" stroke="#002346" stroke-miterlimit="10"></polygon>
    <path d="M513.26,207.42l-8.61,1.72c-.08,.02-.15,.02-.23,0l-74.52-9.21c-2.13-.21-3.69-2.11-3.48-4.24,.2-2.02,1.93-3.55,3.96-3.5,.16-.01,.31-.01,.47,0l74.45,9.21c.13,.01,.25,.06,.35,.14l7.63,5.72s.08,.05,.07,.09c0,.04-.05,.08-.09,.07h0Z" fill="#e9cd53" stroke="#002346" stroke-miterlimit="10"></path>
    <path d="M590.27,172.03c-.02,2.12-.76,4.16-2.1,5.8l-82.25,103.54h-7.49l87.34-112.14c.5-.64,.39-1.56-.24-2.06-.26-.21-.58-.32-.92-.32,4.56,0,5.64,2.72,5.66,5.18Z" fill="#e6e7e8" stroke="#002346" stroke-miterlimit="10"></path>
    <circle cx="557.73" cy="193.15" r="3.31" fill="#e6e7e8" stroke="#002346" stroke-miterlimit="10"></circle>
    <circle cx="544.34" cy="210.1" r="3.31" fill="#e6e7e8" stroke="#002346" stroke-miterlimit="10"></circle>
    <circle cx="531.73" cy="226.97" r="3.31" fill="#e6e7e8" stroke="#002346" stroke-miterlimit="10"></circle>
    <polygon points="505.92 281.36 569.43 281.37 541.02 237.19 505.92 281.36" fill="#fff" stroke="#002346" stroke-miterlimit="10"></polygon>
    <path d="M344.33,417.93c.14,.13,.05,.37-.15,.37h-120.75c-2.87,0-5.19-2.32-5.19-5.19h0v-13.2c0-2.87,2.32-5.19,5.19-5.19h95.93l24.97,23.21Z" fill="#e6e7e8" stroke="#002346" stroke-miterlimit="10"></path>
    <path d="M442.89,218.11l15.81-23c.96-1.39,2.53-2.22,4.22-2.22h13.83c1.31,0,2.58,.51,3.53,1.41l16.63,15.83c.97,.93,1.51,2.22,1.49,3.56-.08,4.54-1.64,14.83-13.73,19.16,0,0-7.7,16.73-18.34,16.72,0-.03-9-11-23.44-31.46Z" fill="#f2b3c1" stroke="#002346" stroke-miterlimit="10"></path>
    <circle cx="647.93" cy="223.79" r="14.64" fill="#fff" stroke="#002346" stroke-miterlimit="10"></circle>
    <rect x="646.99" y="111.39" width="154.61" height="51.4" rx="5.04" ry="5.04" fill="#e6e7e8" stroke="#002346" stroke-miterlimit="10"></rect>
    <rect x="666.21" y="122.52" width="29.15" height="29.15" rx="3.57" ry="3.57" fill="#fff" stroke="#002346" stroke-miterlimit="10"></rect>
    <rect x="709.72" y="122.52" width="29.15" height="29.15" rx="3.57" ry="3.57" fill="#fff" stroke="#002346" stroke-miterlimit="10"></rect>
    <rect x="704.29" y="117.09" width="40.01" height="40.01" rx="4.9" ry="4.9" fill="none" stroke="#002346" stroke-miterlimit="10"></rect>
    <rect x="753.24" y="122.52" width="29.15" height="29.15" rx="3.57" ry="3.57" fill="#fff" stroke="#002346" stroke-miterlimit="10"></rect>
    <path d="M675.13,139.09l-1.14,3.5h-1.47l3.74-11h1.71l3.76,11h-1.52l-1.18-3.46-3.9-.04Zm3.61-1.11l-1.08-3.17c-.24-.72-.4-1.37-.57-2h0c-.16,.66-.34,1.33-.56,2l-1.1,3.17h3.31Z" fill="#002346"></path>
    <path d="M687.74,141.04l-.12-1h-.05c-.57,.76-1.46,1.2-2.41,1.18-1.25,.09-2.33-.85-2.41-2.09,0-.06,0-.12,0-.18,0-1.91,1.7-3,4.75-2.94v-.16c.12-.89-.51-1.71-1.41-1.83-.13-.02-.26-.02-.38,0-.73,0-1.44,.21-2.06,.59l-.33-.95c.79-.47,1.69-.71,2.6-.7,2.41,0,3,1.65,3,3.23v2.95c0,.64,.04,1.27,.13,1.9h-1.3Zm-.21-4c-1.57,0-3.35,.24-3.35,1.78-.06,.7,.46,1.31,1.16,1.37,.06,0,.12,0,.19,0,.85,.01,1.62-.52,1.91-1.32,.05-.15,.08-.3,.09-.46v-1.37Z" fill="#002346"></path>
    <path d="M721.61,140.22h-5l-.91,2.53h-1.57l4.11-11.31h1.72l4.1,11.31h-1.53l-.92-2.53Zm-.42-1.21l-2.06-5.74-2.05,5.74h4.11Z" fill="#002346"></path>
    <path d="M725.89,134.65c.35-.67,.88-1.23,1.53-1.61,.66-.38,1.4-.58,2.16-.57,.7-.01,1.39,.16,2,.5,.54,.3,.99,.74,1.29,1.28v-1.64h1.56v8.95h-1.5v-1.66c-.31,.54-.77,.99-1.31,1.29-.61,.35-1.3,.53-2,.52-.76,0-1.51-.2-2.16-.59-.65-.4-1.18-.97-1.52-1.65-.38-.75-.57-1.57-.55-2.41-.04-.83,.14-1.66,.5-2.41Zm6.61,.66c-.25-.48-.63-.88-1.1-1.15-.46-.27-.99-.4-1.52-.4-.53,0-1.06,.13-1.52,.39-.47,.27-.85,.66-1.1,1.14-.28,.55-.42,1.16-.4,1.77-.02,.62,.12,1.23,.4,1.78,.25,.48,.63,.89,1.1,1.16,.46,.27,.99,.41,1.52,.4,.53,0,1.06-.13,1.52-.4,.47-.27,.85-.67,1.1-1.16,.55-1.11,.55-2.42,0-3.53h0Z" fill="#002346"></path>
    <path d="M763.94,131.26l4,10.27c.1,.32,.29,.61,.55,.82,.17,.12,.37,.2,.58,.22v.33h-3.84v-.31c.38,.04,.75-.06,1.06-.28,.15-.17,.12-.53-.1-1.09l-3-8.11,.27-.21-2.84,7.38c-.2,.43-.31,.9-.33,1.38-.01,.29,.13,.56,.37,.71,.33,.16,.69,.23,1.05,.22v.33h-3.14v-.33c.25-.07,.48-.2,.67-.38,.28-.29,.49-.63,.62-1l3.83-9.89h.26v-.06Zm1.99,6.94v.33h-4.87l.16-.33h4.71Z" fill="#002346"></path>
    <path d="M771.62,141.45c-.98,.12-1.88-.57-2-1.55-.02-.15-.02-.3,0-.45-.02-.4,.1-.8,.34-1.13,.23-.31,.52-.56,.86-.74,.35-.19,.72-.36,1.1-.49l1.1-.4c.31-.11,.6-.25,.86-.44,.21-.14,.33-.37,.33-.62v-1c.01-.34-.06-.69-.2-1-.12-.22-.31-.4-.55-.49-.25-.08-.51-.12-.77-.12-.29,0-.59,.04-.87,.12-.3,.06-.56,.23-.74,.47,.46,.11,.77,.53,.76,1,.02,.24-.08,.48-.26,.65-.18,.17-.42,.25-.67,.24-.27,.02-.53-.1-.69-.31-.29-.41-.29-.95,0-1.36,.16-.19,.34-.35,.54-.49,.31-.2,.65-.35,1-.45,.44-.13,.89-.19,1.35-.19,.39,0,.77,.05,1.14,.16,.29,.08,.56,.24,.78,.45,.28,.25,.48,.58,.56,.95,.09,.44,.14,.9,.13,1.35v4.54c-.01,.2,.03,.4,.11,.58,.09,.13,.24,.2,.4,.19,.14,0,.28-.04,.4-.1,.12-.07,.23-.16,.33-.25l.18,.28c-.2,.16-.42,.3-.65,.43-.26,.13-.55,.19-.84,.18-.46,.1-.93-.07-1.22-.44-.19-.3-.29-.65-.28-1-.26,.5-.68,.91-1.18,1.16-.43,.18-.89,.28-1.35,.27Zm.72-.66c.35,0,.7-.09,1-.28,.37-.25,.68-.6,.88-1v-3.2c-.19,.26-.46,.46-.76,.57-.34,.14-.7,.3-1.06,.47-.35,.16-.67,.4-.94,.68-.28,.35-.42,.79-.39,1.24-.03,.41,.11,.81,.38,1.12,.23,.24,.55,.39,.89,.4h0Z" fill="#002346"></path>
    <ellipse cx="303.33" cy="131.57" rx="6" ry="10" fill="#f2b3c1" stroke="#002346" stroke-miterlimit="10"></ellipse>
    <path d="M322.94,173.1c2.62-.39,4.86,2.1,4.17,4.66-.41,1.5-1.23,3.38-2.69,5.7-.42,.66-.03,1.53,.74,1.67,15.11,2.55,29.05,9.83,39.78,20.82l42.4,39.2,35.5-29.06s19,27,27.22,39.58l-48,43.84s-11.22,12.58-23,5.44l-42.24-33.28,.5,21.21c.08,3.33,1.24,6.53,3.25,9.19,2.66,3.51,5.8,10.02,4.05,20.05-.44,2.63-2.75,4.54-5.42,4.48l-124-3.33c-1.77-.05-3.3-1.23-3.8-2.93-1.46-4.99-3.37-15.47,2.98-23.14,2.35-2.84,3.78-6.33,3.81-10.01l.65-78.03c.04-4.87,2.12-9.5,5.73-12.76,7.56-6.8,16.86-11.37,26.87-13.18,3.17-.57-1.81-4.81-1-6.53,1.17-2.38,3.6-3.86,6.25-3.82l46.65,.22-.39,.02Z" fill="#7674f6" stroke="#002346" stroke-miterlimit="10"></path>
    <path d="M356.74,271.64l-20.94-15.95c-6.58-5.01-11.18-12.29-12.47-20.46-1.02-6.46-.05-13.82,6.38-19.88" fill="none" stroke="#002346" stroke-linecap="round" stroke-linejoin="round"></path>
    <line x1="407.33" y1="245.13" x2="422.07" y2="259" fill="none" stroke="#002346" stroke-linecap="round" stroke-linejoin="round"></line>
    <polyline points="277.33 389.57 268.24 381.56 263.33 358.57" fill="none" stroke="#002346" stroke-linecap="round" stroke-linejoin="round"></polyline>
    <line x1="482.86" y1="196.46" x2="468.17" y2="196.69" fill="none" stroke="#002346" stroke-linecap="round" stroke-linejoin="round"></line>
    <line x1="488.86" y1="202.46" x2="474.17" y2="202.69" fill="none" stroke="#002346" stroke-linecap="round" stroke-linejoin="round"></line>
    <line x1="494.86" y1="208.46" x2="480.17" y2="208.69" fill="none" stroke="#002346" stroke-linecap="round" stroke-linejoin="round"></line>
    <line x1="484.67" y1="232.85" x2="484.67" y2="221.23" fill="none" stroke="#002346" stroke-linecap="round" stroke-linejoin="round"></line>
    <path d="M334.53,583.14s-9.53-4.16-20.86,5.14" fill="none" stroke="#002346" stroke-linecap="round" stroke-linejoin="round"></path>
    <path d="M397.31,568.34s-9.79-8.11-23.13,1.31" fill="none" stroke="#002346" stroke-linecap="round" stroke-linejoin="round"></path>
    <line x1="479.57" y1="68.87" x2="427.25" y2="158.91" fill="none" stroke="#002346" stroke-linecap="round" stroke-linejoin="round"></line>
    <line x1="470.83" y1="73.07" x2="518.84" y2="156.59" fill="none" stroke="#002346" stroke-linecap="round" stroke-linejoin="round"></line>
    <line x1="442.98" y1="160.62" x2="493.47" y2="72.6" fill="none" stroke="#002346" stroke-linecap="round" stroke-linejoin="round"></line>
    <line x1="426.25" y1="150.78" x2="524.24" y2="150.78" fill="none" stroke="#002346" stroke-linecap="round" stroke-linejoin="round"></line>
    <line x1="451.78" y1="160.91" x2="503.22" y2="71.88" fill="none" stroke="#002346" stroke-linecap="round" stroke-linejoin="round"></line>
    <line x1="467.17" y1="161.63" x2="519.49" y2="71.88" fill="none" stroke="#002346" stroke-linecap="round" stroke-linejoin="round"></line>
    <line x1="477.5" y1="161.63" x2="527.83" y2="74.07" fill="none" stroke="#002346" stroke-linecap="round" stroke-linejoin="round"></line>
    <line x1="64.16" y1="631.72" x2="738.87" y2="631.72" fill="none" stroke="#002346" stroke-linecap="round" stroke-linejoin="round"></line>
  </g>
  <g>
    <path d="M124.88,493.56c1.08-5.19,5.3-9.16,10.54-10.51,7.41-1.92,19.59-1.64,29.54,15.02,0,0,9.3,14.72,3.85,36.07,0,0-1.12-10.84-18.63-18.6-1.93-.86-3.93-1.56-5.96-2.17-5.47-1.66-21.86-7.68-19.34-19.8Z" fill="#7cd194" stroke="#002346" stroke-miterlimit="10"></path>
    <path d="M187.67,475.43c-2.37,.44-4.54,1.66-5.99,3.54-2.82,3.68-4.95,11.39,2.3,26.84,0,0,10.69,22.04-6.79,48.35,0,0,28.19-12.29,35.3-38.29,2.46-9,1.75-18.6-2.21-27.08-3.59-7.67-10.33-15.66-22.61-13.37Z" fill="#7cd194" stroke="#002346" stroke-miterlimit="10"></path>
    <path d="M171.9,589.4s-13.67-19.71,9.92-39.64c.53-.45,1.08-.87,1.63-1.3,4.45-3.45,31.29-26.11,12.81-57.84" fill="none" stroke="#002346" stroke-linecap="round" stroke-linejoin="round"></path>
    <path d="M152.15,498.38s24.96,16.14,14.13,44.65c0,0-12.05,29.11,.74,45.77" fill="none" stroke="#002346" stroke-linecap="round" stroke-linejoin="round"></path>
    <path d="M119.28,544.13c.03-3.29,2.13-6.2,5.17-7.62,4.28-1.99,11.73-3.2,19.73,5.84,0,0,7.25,7.8,6.55,21.2,0,.07-.1,.09-.12,.03-.53-1.27-3.27-6.53-13.39-8.96-1.27-.31-2.57-.51-3.87-.66-3.51-.4-14.13-2.23-14.07-9.83Z" fill="#7cd194" stroke="#002346" stroke-miterlimit="10"></path>
    <path d="M193.82,560.24s17.06-13.29,35.03-.39c0,0,8.31,6.12,6.11,12.61-.87,2.59-3.27,4.38-6.02,4.83-3.58,.59-9.68,.41-16.24-4.98,0,0-14.57-10.92-18.87-12.07Z" fill="#7cd194" stroke="#002346" stroke-miterlimit="10"></path>
    <path d="M175.86,589.11s2.44-41.06,42.64-27.97" fill="none" stroke="#002346" stroke-linecap="round" stroke-linejoin="round"></path>
    <polygon points="186.82 631.36 149.06 631.36 146.62 587.92 189.26 587.92 186.82 631.36" fill="#fff" stroke="#002346" stroke-miterlimit="10"></polygon>
    <path d="M147.84,605.47c2.47-1.16,6.18-2.47,10.66-2.38,4.37,.09,7.13,1.47,10.06,2.38,4.2,1.31,10.52,2.2,19.48,0" fill="none" stroke="#002346" stroke-linecap="round" stroke-linejoin="round"></path>
    <path d="M147.84,610.83c2.47-1.16,6.18-2.47,10.66-2.38,4.37,.09,7.13,1.47,10.06,2.38,4.2,1.31,10.52,2.2,19.48,0" fill="none" stroke="#002346" stroke-linecap="round" stroke-linejoin="round"></path>
    <path d="M136.27,546.26s16.44,6.55,20.71,41.66" fill="none" stroke="#002346" stroke-linecap="round" stroke-linejoin="round"></path>
  </g>
</svg>
